<svg xmlns="http://www.w3.org/2000/svg" width="24.421" height="16" viewBox="0 0 24.421 16">
  <g id="_001-czech-republic" data-name="001-czech-republic" transform="translate(0 -88.276)">
    <path id="Path_226" data-name="Path 226" d="M.155,106.206l12.055-7.9L.155,90.41A.414.414,0,0,0,0,90.729v15.158A.414.414,0,0,0,.155,106.206Z" transform="translate(0 -2.032)" fill="#41479b"/>
    <path id="Path_227" data-name="Path 227" d="M3.256,263.9a.414.414,0,0,0,.266.1H27.1a.421.421,0,0,0,.421-.421V256H15.311Z" transform="translate(-3.101 -159.724)" fill="#ff4b55"/>
    <path id="Path_228" data-name="Path 228" d="M3.256,88.378a.414.414,0,0,1,.266-.1H27.1a.421.421,0,0,1,.421.421v7.579H15.311Z" transform="translate(-3.101)" fill="#f5f5f5"/>
  </g>
</svg>
