<svg xmlns="http://www.w3.org/2000/svg" width="24.421" height="16" viewBox="0 0 24.421 16">
  <g id="_003-spain" data-name="003-spain" transform="translate(0 -88.276)">
    <path id="Path_239" data-name="Path 239" d="M.421,104.276H24a.421.421,0,0,0,.421-.421V88.7A.421.421,0,0,0,24,88.276H.421A.421.421,0,0,0,0,88.7v15.158A.421.421,0,0,0,.421,104.276Z" fill="#c8414b"/>
    <rect id="Rectangle_95" data-name="Rectangle 95" width="24.421" height="9.263" transform="translate(0 91.645)" fill="#ffd250"/>
    <path id="Path_240" data-name="Path 240" d="M209.034,218.171l.357-1.606a.237.237,0,0,0-.231-.288h-.251a.237.237,0,0,0-.231.288Z" transform="translate(-198.718 -121.895)" fill="#c8414b"/>
    <rect id="Rectangle_96" data-name="Rectangle 96" width="0.842" height="3.579" transform="translate(9.895 95.434)" fill="#f5f5f5"/>
    <rect id="Rectangle_97" data-name="Rectangle 97" width="1.263" height="0.421" transform="translate(9.684 95.013)" fill="#fab446"/>
    <g id="Group_106" data-name="Group 106" transform="translate(3.637 94.381)">
      <rect id="Rectangle_98" data-name="Rectangle 98" width="2.105" height="0.421" transform="translate(5.205 1.895)" fill="#c8414b"/>
      <path id="Path_241" data-name="Path 241" d="M204.3,274.5l-1.263-.421v-.421l1.263.421Z" transform="translate(-196.987 -270.919)" fill="#c8414b"/>
      <path id="Path_242" data-name="Path 242" d="M76.62,218.171l.357-1.606a.237.237,0,0,0-.231-.288h-.251a.237.237,0,0,0-.231.288Z" transform="translate(-76.257 -216.276)" fill="#c8414b"/>
    </g>
    <path id="Path_243" data-name="Path 243" d="M106.352,229.518a.421.421,0,0,0-.421.421v2.737c0,.512.477,1.474,2.105,1.474s2.105-.962,2.105-1.474v-2.737a.421.421,0,0,0-.421-.421Z" transform="translate(-100.878 -134.505)" fill="#f5f5f5"/>
    <g id="Group_107" data-name="Group 107" transform="translate(5.053 95.013)">
      <path id="Path_244" data-name="Path 244" d="M108.036,231.623h-2.105v-1.684a.421.421,0,0,1,.421-.421h1.684Z" transform="translate(-105.931 -229.518)" fill="#c8414b"/>
      <path id="Path_245" data-name="Path 245" d="M150.069,273.656h2.105v1.053a1.053,1.053,0,0,1-1.053,1.053h0a1.053,1.053,0,0,1-1.053-1.053Z" transform="translate(-147.964 -271.551)" fill="#c8414b"/>
    </g>
    <path id="Path_246" data-name="Path 246" d="M105.931,273.656h2.105v1.053a1.053,1.053,0,0,1-1.053,1.053h0a1.053,1.053,0,0,1-1.053-1.053Z" transform="translate(-100.878 -176.538)" fill="#fab446"/>
    <g id="Group_108" data-name="Group 108" transform="translate(5.474 97.118)">
      <path id="Path_247" data-name="Path 247" d="M132.834,275.546v-1.89h-.421v2.084A1.042,1.042,0,0,0,132.834,275.546Z" transform="translate(-131.571 -273.656)" fill="#c8414b"/>
      <path id="Path_248" data-name="Path 248" d="M115.179,275.74v-2.084h-.421v1.89A1.043,1.043,0,0,0,115.179,275.74Z" transform="translate(-114.758 -273.656)" fill="#c8414b"/>
    </g>
    <rect id="Rectangle_99" data-name="Rectangle 99" width="1.263" height="0.421" transform="translate(5.474 96.276)" fill="#ffb441"/>
    <g id="Group_109" data-name="Group 109" transform="translate(5.474 95.434)">
      <rect id="Rectangle_100" data-name="Rectangle 100" width="1.263" height="0.421" transform="translate(0 0)" fill="#fab446"/>
      <rect id="Rectangle_101" data-name="Rectangle 101" width="0.842" height="0.763" transform="translate(0.21 0.25)" fill="#fab446"/>
    </g>
    <rect id="Rectangle_102" data-name="Rectangle 102" width="0.842" height="3.579" transform="translate(3.579 95.434)" fill="#f5f5f5"/>
    <g id="Group_110" data-name="Group 110" transform="translate(3.368 95.013)">
      <rect id="Rectangle_103" data-name="Rectangle 103" width="1.263" height="0.421" transform="translate(0 3.79)" fill="#fab446"/>
      <rect id="Rectangle_104" data-name="Rectangle 104" width="1.263" height="0.421" transform="translate(0 0)" fill="#fab446"/>
    </g>
    <rect id="Rectangle_105" data-name="Rectangle 105" width="1.684" height="0.421" transform="translate(3.158 99.223)" fill="#5064aa"/>
    <rect id="Rectangle_106" data-name="Rectangle 106" width="1.263" height="0.421" transform="translate(9.895 98.803)" fill="#fab446"/>
    <rect id="Rectangle_107" data-name="Rectangle 107" width="1.684" height="0.421" transform="translate(9.474 99.223)" fill="#5064aa"/>
    <rect id="Rectangle_108" data-name="Rectangle 108" width="2.526" height="0.421" transform="translate(5.895 94.592)" fill="#fab446"/>
    <rect id="Rectangle_109" data-name="Rectangle 109" width="0.421" height="1.263" transform="translate(6.948 93.329)" fill="#ffb441"/>
    <g id="Group_111" data-name="Group 111" transform="translate(5.263 92.697)">
      <path id="Path_249" data-name="Path 249" d="M128.632,182.23a.632.632,0,1,1,.632-.632A.632.632,0,0,1,128.632,182.23Zm0-.842a.211.211,0,1,0,.211.211A.211.211,0,0,0,128.632,181.388Z" transform="translate(-127.158 -180.967)" fill="#f5f5f5"/>
      <path id="Path_250" data-name="Path 250" d="M146.288,182.23a.632.632,0,1,1,.632-.632A.632.632,0,0,1,146.288,182.23Zm0-.842a.211.211,0,1,0,.211.211A.211.211,0,0,0,146.288,181.388Z" transform="translate(-143.972 -180.967)" fill="#f5f5f5"/>
      <path id="Path_251" data-name="Path 251" d="M163.943,191.058a.632.632,0,1,1,.632-.632A.632.632,0,0,1,163.943,191.058Zm0-.842a.211.211,0,1,0,.211.211A.211.211,0,0,0,163.943,190.216Z" transform="translate(-160.785 -189.374)" fill="#f5f5f5"/>
      <path id="Path_252" data-name="Path 252" d="M110.977,191.058a.632.632,0,1,1,.632-.632A.632.632,0,0,1,110.977,191.058Zm0-.842a.211.211,0,1,0,.211.21A.211.211,0,0,0,110.977,190.216Z" transform="translate(-110.345 -189.374)" fill="#f5f5f5"/>
    </g>
    <path id="Path_253" data-name="Path 253" d="M159.738,282.905v.211a.211.211,0,0,1-.421,0v-.211h.421m.421-.421H158.9v.632a.632.632,0,1,0,1.263,0v-.632Z" transform="translate(-151.317 -184.945)" fill="#fab446"/>
    <path id="Path_254" data-name="Path 254" d="M163.731,239.608h0a.421.421,0,0,1-.421-.421v-.421a.421.421,0,0,1,.421-.421h0a.421.421,0,0,1,.421.421v.421A.421.421,0,0,1,163.731,239.608Z" transform="translate(-155.521 -142.911)" fill="#ffa0d2"/>
    <circle id="Ellipse_15" data-name="Ellipse 15" cx="0.632" cy="0.632" r="0.632" transform="translate(6.526 96.486)" fill="#5064aa"/>
    <rect id="Rectangle_110" data-name="Rectangle 110" width="0.421" height="1.263" transform="translate(6.948 92.486)" fill="#fab446"/>
    <path id="Path_255" data-name="Path 255" d="M115.179,195.471l-.421-.421L115,194.8a2.033,2.033,0,0,1,1.438-.6h0a2.033,2.033,0,0,1,1.438.6l.247.247-.421.421Z" transform="translate(-109.284 -100.879)" fill="#c8414b"/>
    <g id="Group_112" data-name="Group 112" transform="translate(6.105 93.96)">
      <circle id="Ellipse_16" data-name="Ellipse 16" cx="0.211" cy="0.211" r="0.211" transform="translate(0.842 0)" fill="#ffd250"/>
      <circle id="Ellipse_17" data-name="Ellipse 17" cx="0.211" cy="0.211" r="0.211" transform="translate(0 0)" fill="#ffd250"/>
      <circle id="Ellipse_18" data-name="Ellipse 18" cx="0.211" cy="0.211" r="0.211" transform="translate(1.684 0)" fill="#ffd250"/>
    </g>
    <g id="Group_113" data-name="Group 113" transform="translate(3.368 96.276)">
      <rect id="Rectangle_111" data-name="Rectangle 111" width="2.105" height="0.421" transform="translate(0 0)" fill="#c8414b"/>
      <path id="Path_256" data-name="Path 256" d="M70.621,274.5l1.263-.421v-.421l-1.263.421Z" transform="translate(-70.621 -272.814)" fill="#c8414b"/>
    </g>
  </g>
</svg>
