<svg xmlns="http://www.w3.org/2000/svg" xmlns:xlink="http://www.w3.org/1999/xlink" width="169.599" height="35.016" viewBox="0 0 169.599 35.016">
                    <defs>
                        <style>.a{fill:url(#a);}.b{fill:url(#b);}.c{fill:url(#c);}.d{fill:url(#d);}.e{fill:url(#e);}.f{fill:url(#i);}</style>
                        <linearGradient id="a" y1="0.5" x2="1" y2="0.5" gradientUnits="objectBoundingBox">
                            <stop offset="0" stop-color="#009ba9"/><stop offset="1" stop-color="#3eb8c3"/>
                        </linearGradient>
                        <linearGradient id="b" y1="0.5" x2="1" y2="0.5" gradientUnits="objectBoundingBox">
                            <stop offset="0" stop-color="#f7aa12"/>
                            <stop offset="1" stop-color="#fcc44f"/>
                        </linearGradient>
                        <linearGradient id="c" y1="0.5" x2="1" y2="0.5" gradientUnits="objectBoundingBox">
                            <stop offset="0" stop-color="#039ba9"/>
                            <stop offset="1" stop-color="#71c5d0"/>
                        </linearGradient>
                        <linearGradient id="d" y1="0.5" x2="1" y2="0.5" gradientUnits="objectBoundingBox">
                            <stop offset="0" stop-color="#f7aa12"/>
                            <stop offset="1" stop-color="#fdd47c"/>
                        </linearGradient>
                        <linearGradient id="e" x1="0.5" y1="1" x2="0.5" y2="0" xlink:href="#b"/>
                        <linearGradient id="i" x1="0.5" y1="1" x2="0.5" y2="0" xlink:href="#a"/>
                    </defs>
                    <g transform="translate(-46.996 -385.589)">
                        <g transform="translate(6.401 5.618)">
                            <path class="a" d="M52.551,396.912a21.122,21.122,0,0,0-2.982,4.587,14.074,14.074,0,0,0-1.3,4.589,12.1,12.1,0,0,0,1.226,6.6c-4.3-.481-8.9-2.8-8.9-10.525,0-4.168,3.11-9.082,6.118-13.834a59.049,59.049,0,0,0,4.716-8.361,25.133,25.133,0,0,0,1.42,2.814C55,386.664,57.44,391.06,52.551,396.912Z" transform="translate(0 0)"/>
                            <path class="b" d="M64.683,404.748c0,6.509-3.145,10.063-9.351,10.569a10.672,10.672,0,0,1-1.27-2.5c-1.239-3.588-.185-7.423,3.135-11.4a15.712,15.712,0,0,0,3-5.221,11.52,11.52,0,0,0,.444-1.951C62.812,397.84,64.683,401.513,64.683,404.748Z" transform="translate(-2.345 -2.582)"/>
                            <path class="c" d="M49.5,412.694c-4.3-.483-8.9-2.8-8.9-10.525,0-.2.008-.4.025-.614.008-.147.025-.295.041-.442a.716.716,0,0,1,.016-.131,2.365,2.365,0,0,1,.033-.238,3.955,3.955,0,0,1,.074-.433c.041-.213.082-.427.139-.64.049-.2.1-.392.156-.6a20.628,20.628,0,0,1,.844-2.294c.123-.287.254-.573.393-.868.459-.967.991-1.957,1.564-2.949.106-.18.213-.369.319-.549.164-.279.328-.557.5-.836.647-1.081,1.335-2.171,2.015-3.244a60.039,60.039,0,0,0,4.718-8.363C56.158,392.257,38.138,397.991,49.5,412.694Z" transform="translate(0 0)"/>
                            <path class="d" d="M55.332,415.317a10.672,10.672,0,0,1-1.27-2.5c-1.239-3.588-.185-7.423,3.135-11.4a15.712,15.712,0,0,0,3-5.221,11.52,11.52,0,0,0,.444-1.951C65.875,406.307,55.227,407.945,55.332,415.317Z" transform="translate(-2.345 -2.582)"/>
                        </g>
                        <path class="e" d="M158.935,413.836c-.056,2.144,1.225,2.618,2.59,2.618,1.337,0,2.535-.641,2.535-1.978,0-1-.613-1.838-2.479-1.838-4.624,0-7.66-2.674-7.66-6.936,0-4.318,3.4-7.048,7.66-7.048a8.409,8.409,0,0,1,2.841.529c.474-.612,1.031-1.309,1.477-1.894l3.7,2.646-1.782,2.118a5.161,5.161,0,0,1,1.309,3.7,5.794,5.794,0,0,1-2.507,4.569,4.656,4.656,0,0,1,2.7,4.15c0,4.457-3.872,6.129-7.8,6.129-4.93,0-7.688-2.563-7.409-6.769Zm-.028-8.134a2.582,2.582,0,0,0,2.674,2.7,2.484,2.484,0,0,0,2.59-2.7,2.683,2.683,0,0,0-2.59-2.842A2.591,2.591,0,0,0,158.907,405.7Z"/>
                        <path class="e" d="M176.762,399.1v7.6c0,1.7.975,2.285,1.922,2.285a2.292,2.292,0,0,0,2.368-2.563V399.1h5.069v13.761h-4.54l-.223-1.505a5.585,5.585,0,0,1-4.346,1.839c-2.9-.028-5.376-1.56-5.376-6.463V399.1Z"/>
                        <path class="e" d="M193.726,399.1l.306,1.5a3.687,3.687,0,0,1,3.343-1.838A4.977,4.977,0,0,1,201,400.242l-2.061,3.7a3.265,3.265,0,0,0-2.312-.836,2.288,2.288,0,0,0-2.368,2.591v7.159h-5.126V399.1Z"/>
                        <path class="e" d="M207.235,399.1v7.6c0,1.7.975,2.285,1.922,2.285a2.292,2.292,0,0,0,2.368-2.563V399.1h5.07v13.761h-4.541l-.223-1.505a5.585,5.585,0,0,1-4.345,1.839c-2.9-.028-5.376-1.56-5.376-6.463V399.1Z"/>
                        <path class="f" d="M79.492,392.971a2.595,2.595,0,1,1-2.9,2.591A2.649,2.649,0,0,1,79.492,392.971Zm2.563,19.89V399.323H76.9v13.538Z"/>
                        <path class="f" d="M94.422,412.861v-7.6c0-1.7-.975-2.284-1.922-2.284a2.362,2.362,0,0,0-2.368,2.646v7.243H85.063V399.1H89.6l.223,1.5a5.584,5.584,0,0,1,4.345-1.838c2.9.027,5.377,1.559,5.377,6.462v7.633Z"/>
                        <path class="f" d="M103.085,407.679a8.954,8.954,0,0,0,4.875,1.533c.919,0,1.393-.223,1.393-.669s-.446-.669-1.449-.752c-2.674-.084-5.9-1.17-5.9-4.513,0-3.315,3.119-4.512,6.351-4.512a9.632,9.632,0,0,1,5.627,1.671L111.8,403.5a7.448,7.448,0,0,0-3.454-.836c-.725,0-1.226.167-1.226.669,0,.251.195.641,1.031.668,2.869.084,6.323.892,6.323,4.541,0,3.4-3.092,4.68-6.407,4.68a12.222,12.222,0,0,1-6.657-1.811Z"/>
                        <path class="f" d="M122.946,395.2v3.983h3.092v3.928h-3.12v4.513a1.222,1.222,0,0,0,1.365,1.337,2.9,2.9,0,0,0,1.5-.474l1.114,3.789a7.9,7.9,0,0,1-3.955.919c-2.73,0-5.182-1.254-5.1-5.571v-4.513h-2.2v-3.928h2.2v-3.426Z"/>
                        <path class="f" d="M138.768,399.1h4.819v13.761h-4.736l-.223-1.477a5.668,5.668,0,0,1-4.54,1.727c-4.039-.25-6.3-3.12-6.3-7.131,0-4.067,2.674-7.187,6.686-7.187a4.526,4.526,0,0,1,4.039,1.783Zm-5.878,6.88a2.735,2.735,0,0,0,2.758,3.009,2.857,2.857,0,0,0,2.841-3.009,2.719,2.719,0,0,0-2.841-3.036A2.758,2.758,0,0,0,132.89,405.98Z"/>
                        <path class="f" d="M151.664,393.334v19.527H146.6V393.334Z"/>
                    </g>
                    </svg>