<svg width="24" height="24" viewBox="0 0 24 24" fill="none" xmlns="http://www.w3.org/2000/svg">
<path d="M10 6.592C10.3413 6.4 10.7093 6.256 11.104 6.16C11.4987 6.05333 11.888 6 12.272 6C13.1893 6 13.9307 6.23467 14.496 6.704C15.072 7.16267 15.36 7.77067 15.36 8.528C15.36 8.92267 15.2907 9.28533 15.152 9.616C15.024 9.94667 14.864 10.2453 14.672 10.512C14.48 10.768 14.2187 11.088 13.888 11.472C13.4293 11.984 13.072 12.4427 12.816 12.848C12.5707 13.2533 12.4213 13.7227 12.368 14.256L12.32 14.544H11.552V14.144C11.552 13.472 11.6693 12.9067 11.904 12.448C12.1387 11.9787 12.4853 11.456 12.944 10.88C13.3067 10.4213 13.5733 10.032 13.744 9.712C13.9253 9.38133 14.016 9.01333 14.016 8.608C14.016 8.14933 13.856 7.78667 13.536 7.52C13.216 7.25333 12.7733 7.12 12.208 7.12C11.4613 7.12 10.7253 7.344 10 7.792V6.592ZM11.12 17.52V15.872H12.768V17.52H11.12Z" fill="#E5E5E5"/>
<circle cx="12" cy="12" r="11" stroke="#E5E5E5" stroke-width="1"/>
</svg>
