<svg width="24" height="24" viewBox="0 0 24 24" fill="none" xmlns="http://www.w3.org/2000/svg">
<path d="M11.234 9.82192C10.4208 10.589 9.93853 11.3653 9.78723 12.1507H11.1773L10.922 15H8L8.17021 13C8.22695 12.2329 8.41608 11.5297 8.73759 10.8904C9.0591 10.2329 9.56028 9.60274 10.2411 9L11.234 9.82192ZM16 9.82192C15.1868 10.589 14.7045 11.3653 14.5532 12.1507H15.9433L15.6879 15H12.766L12.9362 13C12.9929 12.2329 13.182 11.5297 13.5035 10.8904C13.8251 10.2329 14.3262 9.60274 15.0071 9L16 9.82192Z" fill="#E5E5E5"/>
<circle cx="12" cy="12" r="11" stroke="#E5E5E5" stroke-width="1"/>
</svg>
