<svg width="18" height="24" viewBox="0 0 18 24" fill="none" xmlns="http://www.w3.org/2000/svg">
<path d="M8.96816 1C6.85563 1.00246 4.83033 1.84275 3.33654 3.33654C1.84276 4.83033 1.00246 6.85563 1 8.96816C1 14.4213 8.13123 22.4233 8.43418 22.7618C8.50148 22.8368 8.58381 22.8967 8.67581 22.9378C8.76781 22.9788 8.86742 23 8.96816 23C9.06889 23 9.1685 22.9788 9.2605 22.9378C9.3525 22.8967 9.43483 22.8368 9.50213 22.7618C9.80593 22.4233 16.9363 14.4188 16.9363 8.96816C16.9338 6.85563 16.0936 4.83033 14.5998 3.33654C13.106 1.84275 11.0807 1.00246 8.96816 1V1ZM8.96816 12.9776C8.17509 12.9778 7.39978 12.7428 6.7403 12.3023C6.08082 11.8618 5.56678 11.2356 5.26321 10.5029C4.95964 9.77023 4.88016 8.96399 5.03484 8.18616C5.18952 7.40832 5.5714 6.69382 6.13219 6.13304C6.69297 5.57225 7.40747 5.19037 8.18531 5.03569C8.96315 4.88101 9.76939 4.96048 10.5021 5.26406C11.2347 5.56763 11.8609 6.08166 12.3014 6.74114C12.7419 7.40063 12.9769 8.17593 12.9768 8.969C12.9754 10.0317 12.5527 11.0506 11.8012 11.802C11.0497 12.5535 10.0309 12.9763 8.96816 12.9776V12.9776Z" stroke="#14838D"/>
</svg>
