<svg width="180" height="37" viewBox="0 0 180 37" fill="none" xmlns="http://www.w3.org/2000/svg">
<path d="M12.6338 17.9045C11.3777 19.3768 10.3185 21.0061 9.48273 22.7516C8.75228 24.278 8.28771 25.918 8.10903 27.6007C7.87446 30.0011 8.32357 32.4189 9.40453 34.5749C4.86077 34.0666 0 31.6161 0 23.4532C0 19.0489 3.2863 13.8564 6.46482 8.835C8.36296 6.03013 10.0296 3.07536 11.4482 0C11.8856 1.02159 12.3868 2.01475 12.9487 2.97355C15.2216 7.07562 17.7999 11.7208 12.6338 17.9045Z" fill="url(#paint0_linear)"/>
<path d="M22.9756 23.4563C22.9756 30.3343 19.6523 34.0898 13.0945 34.6245C12.5329 33.8068 12.0817 32.9185 11.7525 31.9828C10.4432 28.1914 11.557 24.139 15.0652 19.9365C16.4677 18.3191 17.5441 16.4457 18.2353 14.4196C18.4512 13.7473 18.6081 13.0574 18.7044 12.3579C20.9985 16.1567 22.9756 20.0379 22.9756 23.4563Z" fill="url(#paint1_linear)"/>
<path d="M9.41094 34.5812C4.86718 34.0708 0.00640869 31.6225 0.00640869 23.4596C0.00640869 23.2482 0.0148638 23.0369 0.0328275 22.8108C0.041281 22.6554 0.0592451 22.499 0.0761522 22.3437C0.0775143 22.2971 0.0831728 22.2508 0.093058 22.2053C0.100413 22.1209 0.112052 22.037 0.12793 21.9538C0.145498 21.7999 0.171605 21.6472 0.206126 21.4962C0.24945 21.2712 0.292775 21.045 0.353006 20.8199C0.404784 20.6086 0.458673 20.4058 0.517847 20.186C0.766953 19.361 1.06476 18.5516 1.40969 17.7619C1.53967 17.4586 1.67809 17.1564 1.82497 16.8447C2.30999 15.8229 2.87215 14.7767 3.47763 13.7285C3.58964 13.5383 3.70271 13.3386 3.81472 13.1484C3.98801 12.8536 4.16131 12.5598 4.34306 12.265C5.02674 11.1227 5.75374 9.97092 6.47229 8.8371C8.36738 6.02923 10.0345 3.07407 11.4578 0C16.4464 12.9857 -2.59516 19.0447 9.41094 34.5812Z" fill="url(#paint2_linear)"/>
<path d="M13.0945 34.6245C12.5329 33.8068 12.0817 32.9185 11.7525 31.9828C10.4432 28.1914 11.557 24.139 15.0652 19.9365C16.4677 18.3191 17.5441 16.4457 18.2353 14.4196C18.4512 13.7473 18.6081 13.0574 18.7044 12.3579C24.2351 25.1037 12.9835 26.8346 13.0945 34.6245Z" fill="url(#paint3_linear)"/>
<path d="M118.285 29.8515C118.226 32.117 119.579 32.6179 121.022 32.6179C122.434 32.6179 123.7 31.9406 123.7 30.5278C123.7 29.4711 123.052 28.5856 121.081 28.5856C116.195 28.5856 112.986 25.76 112.986 21.2564C112.986 16.6936 116.579 13.8088 121.081 13.8088C122.106 13.8205 123.122 14.0097 124.083 14.3678C124.584 13.7211 125.172 12.9846 125.643 12.3665L129.553 15.1625L127.67 17.4005C128.628 18.4708 129.125 19.8757 129.053 21.3103C129.02 22.266 128.762 23.2005 128.302 24.039C127.842 24.8774 127.192 25.5963 126.404 26.1383C127.244 26.5269 127.957 27.1446 128.462 27.9202C128.967 28.6959 129.242 29.5982 129.257 30.5235C129.257 35.2332 125.166 37 121.015 37C115.806 37 112.891 34.2917 113.186 29.8473L118.285 29.8515ZM118.255 21.2564C118.238 21.6334 118.299 22.0099 118.434 22.3621C118.569 22.7144 118.776 23.0347 119.042 23.3028C119.308 23.5709 119.626 23.7811 119.977 23.9199C120.328 24.0588 120.704 24.1233 121.081 24.1094C121.455 24.1269 121.828 24.0641 122.176 23.9252C122.524 23.7864 122.838 23.5748 123.097 23.3045C123.356 23.0343 123.555 22.7117 123.679 22.3584C123.803 22.0052 123.851 21.6294 123.818 21.2564C123.84 20.8783 123.787 20.4996 123.661 20.1424C123.535 19.7853 123.338 19.4571 123.083 19.1772C122.828 18.8972 122.519 18.6713 122.175 18.5126C121.831 18.3539 121.459 18.2657 121.081 18.2533C120.691 18.2389 120.302 18.3082 119.941 18.4564C119.58 18.6046 119.254 18.8282 118.987 19.1125C118.719 19.3967 118.515 19.7348 118.389 20.1042C118.263 20.4736 118.217 20.8657 118.255 21.2543V21.2564Z" fill="url(#paint4_linear)"/>
<path d="M137.122 14.2802V22.311C137.122 24.1074 138.153 24.7255 139.153 24.7255C139.504 24.7396 139.853 24.6775 140.177 24.5435C140.501 24.4094 140.792 24.2066 141.03 23.9491C141.268 23.6916 141.447 23.3855 141.555 23.0519C141.663 22.7184 141.697 22.3653 141.656 22.0172V14.2802H147.012V28.8212H142.214L141.979 27.2309C141.402 27.8704 140.691 28.3757 139.898 28.7114C139.105 29.0471 138.247 29.2051 137.386 29.1742C134.322 29.1446 131.706 27.5257 131.706 22.3448V14.2802H137.122Z" fill="url(#paint5_linear)"/>
<path d="M155.048 14.2801L155.371 15.8651C155.727 15.2501 156.244 14.744 156.867 14.4016C157.49 14.0593 158.194 13.8938 158.904 13.9229C159.615 13.9111 160.321 14.0436 160.979 14.3124C161.638 14.5812 162.235 14.9807 162.734 15.4868L160.557 19.3966C159.888 18.795 159.012 18.4781 158.113 18.5132C157.76 18.4977 157.408 18.5599 157.081 18.6954C156.754 18.8309 156.461 19.0364 156.223 19.2975C155.984 19.5586 155.806 19.8689 155.7 20.2064C155.594 20.5439 155.564 20.9005 155.611 21.2511V28.8159H150.195V14.2801H155.048Z" fill="url(#paint6_linear)"/>
<path d="M169.323 14.2802V22.311C169.323 24.1074 170.353 24.7255 171.354 24.7255C171.704 24.7396 172.053 24.6775 172.377 24.5435C172.701 24.4094 172.992 24.2066 173.23 23.9491C173.468 23.6916 173.647 23.3855 173.755 23.0519C173.863 22.7184 173.898 22.3653 173.856 22.0172V14.2802H179.213V28.8212H174.415L174.179 27.2309C173.602 27.8702 172.892 28.3755 172.099 28.7112C171.306 29.0469 170.449 29.2049 169.588 29.1742C166.524 29.1446 163.907 27.5257 163.907 22.3448V14.2802H169.323Z" fill="url(#paint7_linear)"/>
<path d="M34.3382 7.80365C34.8625 7.86571 35.3577 8.07779 35.7644 8.41445C36.1711 8.75111 36.472 9.19803 36.6309 9.70152C36.7897 10.205 36.7999 10.7436 36.6601 11.2528C36.5203 11.7619 36.2365 12.2198 35.8428 12.5716C35.4491 12.9233 34.9622 13.154 34.4406 13.2358C33.9191 13.3175 33.385 13.247 32.9025 13.0326C32.42 12.8183 32.0097 12.4692 31.7208 12.0273C31.4318 11.5854 31.2767 11.0695 31.2738 10.5415C31.2805 10.1557 31.3669 9.77542 31.5276 9.42458C31.6883 9.07373 31.9198 8.75988 32.2076 8.50278C32.4953 8.24567 32.8332 8.05086 33.1998 7.93054C33.5665 7.81023 33.954 7.76703 34.3382 7.80365ZM37.0465 28.8212V14.5157H31.5993V28.8212H37.0465Z" fill="url(#paint8_linear)"/>
<path d="M50.1145 28.8211V20.7903C50.1145 18.9939 49.0843 18.3768 48.0836 18.3768C47.7284 18.3733 47.3766 18.4457 47.0517 18.5891C46.7267 18.7324 46.4361 18.9435 46.1992 19.2082C45.9624 19.4728 45.7847 19.785 45.6782 20.1238C45.5716 20.4626 45.5386 20.8202 45.5813 21.1728V28.8264H40.225V14.2801H45.0192L45.2548 15.8651C45.832 15.2259 46.5421 14.7208 47.3353 14.3853C48.1285 14.0498 48.9855 13.8919 49.8461 13.9229C52.9105 13.9514 55.5279 15.5703 55.5279 20.7512V28.8169L50.1145 28.8211Z" fill="url(#paint9_linear)"/>
<path d="M59.2686 23.3454C60.7919 24.3743 62.582 24.9372 64.42 24.9653C65.3911 24.9653 65.892 24.7296 65.892 24.2584C65.892 23.7871 65.4207 23.5514 64.3608 23.4637C61.5352 23.375 58.1264 22.2274 58.1264 18.6949C58.1264 15.192 61.4222 13.9271 64.8374 13.9271C66.9548 13.8827 69.0334 14.5 70.7834 15.6929L68.4777 18.9295C67.3502 18.3448 66.0979 18.0417 64.8279 18.0461C64.0618 18.0461 63.5324 18.2226 63.5324 18.753C63.5324 19.0182 63.7384 19.4304 64.6218 19.4589C67.6535 19.5476 71.3033 20.4014 71.3033 24.2573C71.3033 27.85 68.036 29.2026 64.5331 29.2026C62.0532 29.2535 59.6111 28.5891 57.4987 27.289L59.2686 23.3454Z" fill="url(#paint10_linear)"/>
<path d="M80.2555 10.159V14.3678H83.5228V18.5184H80.2259V23.2873C80.2062 23.4803 80.2303 23.6752 80.2962 23.8576C80.3622 24.04 80.4684 24.2052 80.607 24.341C80.7456 24.4767 80.9129 24.5795 81.0967 24.6416C81.2804 24.7038 81.4758 24.7238 81.6683 24.7001C82.2327 24.6824 82.7813 24.509 83.2534 24.1992L84.4305 28.203C83.1458 28.8853 81.7052 29.2201 80.2513 29.1741C77.3665 29.1741 74.7755 27.849 74.8622 23.2873V18.5184H72.5375V14.3678H74.8622V10.7475L80.2555 10.159Z" fill="url(#paint11_linear)"/>
<path d="M96.9745 14.2801H102.067V28.8212H97.0622L96.8266 27.2605C96.2121 27.9012 95.4629 28.3973 94.6332 28.7129C93.8036 29.0285 92.9141 29.1557 92.0292 29.0854C87.7612 28.8212 85.372 25.7885 85.372 21.5501C85.372 17.2526 88.1976 13.9557 92.4371 13.9557C93.2501 13.8792 94.0692 14.0122 94.8164 14.342C95.5635 14.6718 96.2137 15.1875 96.705 15.8398L96.9745 14.2801ZM90.7633 21.5501C90.7224 21.9553 90.7677 22.3646 90.8961 22.751C91.0245 23.1375 91.2331 23.4925 91.5082 23.7927C91.7834 24.0929 92.1189 24.3316 92.4928 24.4931C92.8666 24.6545 93.2704 24.7352 93.6776 24.7297C94.0865 24.728 94.4908 24.6432 94.866 24.4806C95.2412 24.3179 95.5794 24.0807 95.8601 23.7834C96.1408 23.486 96.3582 23.1347 96.4991 22.7509C96.64 22.367 96.7014 21.9585 96.6797 21.5501C96.729 21.1346 96.687 20.7133 96.5565 20.3157C96.4261 19.9181 96.2104 19.5537 95.9244 19.2482C95.6385 18.9426 95.2893 18.7032 94.9012 18.5467C94.5131 18.3902 94.0955 18.3203 93.6776 18.342C93.2689 18.3399 92.8643 18.4239 92.4901 18.5883C92.1159 18.7528 91.7805 18.9942 91.5056 19.2967C91.2308 19.5993 91.0226 19.9563 90.8948 20.3445C90.7669 20.7327 90.7221 21.1435 90.7633 21.5501Z" fill="url(#paint12_linear)"/>
<path d="M110.602 8.18726V28.8212H105.25V8.18726H110.602Z" fill="url(#paint13_linear)"/>
<defs>
<linearGradient id="paint0_linear" x1="0" y1="17.2874" x2="15.6423" y2="17.2874" gradientUnits="userSpaceOnUse">
<stop stop-color="#009BA9"/>
<stop offset="1" stop-color="#3EB8C3"/>
</linearGradient>
<linearGradient id="paint1_linear" x1="11.2213" y1="23.4912" x2="22.9756" y2="23.4912" gradientUnits="userSpaceOnUse">
<stop stop-color="#F7AA12"/>
<stop offset="1" stop-color="#FCC44F"/>
</linearGradient>
<linearGradient id="paint2_linear" x1="0.00640869" y1="17.2906" x2="12.3107" y2="17.2906" gradientUnits="userSpaceOnUse">
<stop stop-color="#039BA9"/>
<stop offset="1" stop-color="#71C5D0"/>
</linearGradient>
<linearGradient id="paint3_linear" x1="11.2213" y1="23.4912" x2="20.2344" y2="23.4912" gradientUnits="userSpaceOnUse">
<stop stop-color="#F7AA12"/>
<stop offset="1" stop-color="#FDD47C"/>
</linearGradient>
<linearGradient id="paint4_linear" x1="121.27" y1="37" x2="121.27" y2="12.3665" gradientUnits="userSpaceOnUse">
<stop stop-color="#F7AA12"/>
<stop offset="1" stop-color="#FCC44F"/>
</linearGradient>
<linearGradient id="paint5_linear" x1="139.359" y1="29.178" x2="139.359" y2="14.2802" gradientUnits="userSpaceOnUse">
<stop stop-color="#F7AA12"/>
<stop offset="1" stop-color="#FCC44F"/>
</linearGradient>
<linearGradient id="paint6_linear" x1="156.464" y1="28.8159" x2="156.464" y2="13.9196" gradientUnits="userSpaceOnUse">
<stop stop-color="#F7AA12"/>
<stop offset="1" stop-color="#FCC44F"/>
</linearGradient>
<linearGradient id="paint7_linear" x1="171.56" y1="29.1779" x2="171.56" y2="14.2802" gradientUnits="userSpaceOnUse">
<stop stop-color="#F7AA12"/>
<stop offset="1" stop-color="#FCC44F"/>
</linearGradient>
<linearGradient id="paint8_linear" x1="34.1601" y1="28.8212" x2="34.1601" y2="7.79102" gradientUnits="userSpaceOnUse">
<stop stop-color="#009BA9"/>
<stop offset="1" stop-color="#3EB8C3"/>
</linearGradient>
<linearGradient id="paint9_linear" x1="47.8765" y1="28.8264" x2="47.8765" y2="13.9191" gradientUnits="userSpaceOnUse">
<stop stop-color="#009BA9"/>
<stop offset="1" stop-color="#3EB8C3"/>
</linearGradient>
<linearGradient id="paint10_linear" x1="64.401" y1="29.2053" x2="64.401" y2="13.9249" gradientUnits="userSpaceOnUse">
<stop stop-color="#009BA9"/>
<stop offset="1" stop-color="#3EB8C3"/>
</linearGradient>
<linearGradient id="paint11_linear" x1="78.484" y1="29.1783" x2="78.484" y2="10.159" gradientUnits="userSpaceOnUse">
<stop stop-color="#009BA9"/>
<stop offset="1" stop-color="#3EB8C3"/>
</linearGradient>
<linearGradient id="paint12_linear" x1="93.7194" y1="29.1042" x2="93.7194" y2="13.9347" gradientUnits="userSpaceOnUse">
<stop stop-color="#009BA9"/>
<stop offset="1" stop-color="#3EB8C3"/>
</linearGradient>
<linearGradient id="paint13_linear" x1="107.926" y1="28.8212" x2="107.926" y2="8.18726" gradientUnits="userSpaceOnUse">
<stop stop-color="#009BA9"/>
<stop offset="1" stop-color="#3EB8C3"/>
</linearGradient>
</defs>
</svg>
